<?xml version="1.0" encoding="utf-8"?>
<!-- Generator: Adobe Illustrator 19.2.0, SVG Export Plug-In . SVG Version: 6.00 Build 0)  -->
<svg version="1.1" id="Layer_1" xmlns="http://www.w3.org/2000/svg" xmlns:xlink="http://www.w3.org/1999/xlink" x="0px" y="0px"
	 viewBox="0 0 76.8 67.6" style="enable-background:new 0 0 76.8 67.6;" xml:space="preserve">
<style type="text/css">
	.st0{fill:none;stroke:#000000;stroke-width:2;stroke-linecap:round;stroke-linejoin:round;stroke-miterlimit:10;}
	.st1{stroke:#000000;stroke-width:2;stroke-linecap:round;stroke-linejoin:round;stroke-miterlimit:10;}
</style>
<path class="st0" d="M24,26.1v2c0,8.2,6.7,12,14.9,12l0,0c8.2,0,14.9-3.8,14.9-12v-2"/>
<path class="st0" d="M48.5,38.3c3.3,2.8,5.5,6.9,5.5,11.6v8.5"/>
<path class="st0" d="M23.9,58.4v-8.5c0-4.7,2.1-8.8,5.5-11.6"/>
<g>
	<circle cx="43.2" cy="25.9" r="1.9"/>
	<circle cx="34.6" cy="25.9" r="1.9"/>
</g>
<path class="st1" d="M41,31.1L41,31.1c0-0.4-0.4-0.8-0.8-0.8h-2.5c-0.4,0-0.8,0.4-0.8,0.8l0,0l2.1,1.5L41,31.1z"/>
<path class="st0" d="M29.6,15.6V22c0,2.4-2,4.4-4.4,4.4l0,0c-2.4,0-4.4-2-4.4-4.4v-3.8c0-2.4,1.8-5.3,4.4-6.4l0,0
	c0,0,5.5-2.7,14.1-2.7s13.2,2.7,13.2,2.7l0,0c2.8,1.3,4.4,4,4.4,6.4V22c0,2.4-2,4.4-4.4,4.4l0,0c-2.4,0-4.4-2-4.4-4.4v-6.4"/>
</svg>
