<?xml version="1.0" encoding="utf-8"?>
<!-- Generator: Adobe Illustrator 19.2.0, SVG Export Plug-In . SVG Version: 6.00 Build 0)  -->
<svg version="1.1" id="Layer_1" xmlns="http://www.w3.org/2000/svg" xmlns:xlink="http://www.w3.org/1999/xlink" x="0px" y="0px"
	 viewBox="0 0 76.1 99" style="enable-background:new 0 0 76.1 99;" xml:space="preserve">
<g>
	<path d="M33.3,45.3c-2.8-2.8-7.4-2.8-10.2,0s-2.8,7.4,0,10.2c1.4,1.4,3.3,2.1,5.1,2.1s3.7-0.7,5.1-2.1l0,0
		C36.1,52.7,36.1,48.1,33.3,45.3z M30.6,52.8c-1.3,1.3-3.4,1.3-4.7,0s-1.3-3.4,0-4.7c0.7-0.7,1.5-1,2.4-1s1.7,0.3,2.4,1
		C31.9,49.4,31.9,51.5,30.6,52.8z"/>
	<path d="M34.7,34.6c0.4,0.4,0.9,0.6,1.4,0.6s1-0.2,1.4-0.6l3.9-3.9c0.8-0.8,0.8-2,0-2.7c-0.8-0.8-2-0.8-2.7,0l-3.9,3.9
		C33.9,32.6,33.9,33.8,34.7,34.6z"/>
	<path d="M41.1,53.3c0-1-0.9-1.9-1.9-1.9c-1.1,0-1.9,0.9-1.9,1.9c0,0.5-0.3,1.1-1.5,1.3c-1.1,0.1-1.8,1.1-1.7,2.2
		c0.1,1,1,1.7,1.9,1.7c0.1,0,0.2,0,0.2,0C39.8,58,41.1,55.1,41.1,53.3z"/>
	<path d="M21.2,43.6c-0.4-1-1.6-1.4-2.5-1c-3.4,1.4-3.8,4.6-3.3,6.3c0.3,0.8,1,1.4,1.8,1.4c0.2,0,0.4,0,0.6-0.1
		c1-0.3,1.6-1.4,1.3-2.4c-0.1-0.2-0.2-1,1.1-1.6C21.2,45.7,21.6,44.6,21.2,43.6z"/>
	<ellipse transform="matrix(0.7071 -0.7071 0.7071 0.7071 -7.8685 30.4437)" cx="32.8" cy="24.7" rx="1.7" ry="1.7"/>
	<ellipse transform="matrix(0.7071 -0.7071 0.7071 0.7071 -35.6131 33.7953)" cx="23" cy="59.9" rx="1.7" ry="1.7"/>
	<ellipse transform="matrix(0.7071 -0.7071 0.7071 0.7071 -0.1014 32.6998)" cx="39.4" cy="16.5" rx="1.7" ry="1.7"/>
	<ellipse transform="matrix(0.7071 -0.7071 0.7071 0.7071 -1.8033 40.5933)" cx="48.1" cy="22.5" rx="1.7" ry="1.7"/>
	<ellipse transform="matrix(0.7071 -0.7071 0.7071 0.7071 -6.7739 52.1114)" cx="59.5" cy="34.2" rx="1.7" ry="1.7"/>
	<ellipse transform="matrix(0.7071 -0.7071 0.7071 0.7071 -12.3829 58.7577)" cx="64.7" cy="44.3" rx="1.7" ry="1.7"/>
	<ellipse transform="matrix(0.7071 -0.7071 0.7071 0.7071 -18.6208 35.6989)" cx="33.8" cy="40.3" rx="1.7" ry="1.7"/>
	<path d="M75.8,48.4C65,28.2,47.8,11.1,27.6,0.2C26.9-0.2,26,0,25.4,0.6L24,1.9c-2.9,2.9-3.7,7.1-2.3,10.9L18,23.1
		c-0.4,0.3-0.7,0.6-1.1,0.9c-1.6,1.6-2.5,3.8-2.5,6c0,0.8,0.1,1.5,0.3,2.2L8.3,50.5c-1.4,0.4-2.7,1.1-3.7,2.1
		c-1.6,1.6-2.5,3.8-2.5,6c0,1.8,0.6,3.5,1.6,4.9l-3.5,9.8c-0.3,0.9,0.1,1.9,0.9,2.3C0.6,82,0.1,95,2.7,97.9C3.2,98.7,4,99,4.7,99
		c5,0,5.6-7.5,6.3-14.8c0.2-2.3,0.4-4.4,0.7-5.9c0.3-1.6,0.9-1.8,2.3-2.5c1.8-0.8,4.1-2,5.7-6.1l2.3-0.8c0,4.1,0.1,11,0.1,12.1
		c0,0.3,0.3,2,1.8,2.9c0.4,0.2,0.9,0.4,1.6,0.4c0.6,0,1.3-0.2,2.2-0.6c3.2-1.6,4.9-5.7,4.4-8.5c-0.2-1.1-0.1-4.5,0-6.5
		c0.3-0.5,1.2-1.9,3.8-1.5c3.7,0.5,3.8,2.2,3.9,2.7c0,0.4-0.2,1.8-0.4,2.6C39.1,74,38.9,75,39,75.6c0,0.1,0,0.3,0,0.5
		c-0.1,1.3-0.3,3.8,1.5,5.1c1.1,0.9,2.6,1,4.5,0.3c2.9-1,4.5-4.3,4.7-9.8c0.4-0.5,1.7-1.6,2.5-2.3c2.9-2.5,5.8-5,5.3-7.6v-5.5l5.7-2
		c3.7,1.5,8,0.6,10.8-2.2l1.3-1.3C76.1,50.1,76.2,49.2,75.8,48.4z M19.8,26.7c0.9-0.9,2.1-1.4,3.3-1.4s2.4,0.5,3.3,1.4
		c1.8,1.8,1.8,4.8,0,6.6s-4.8,1.8-6.6,0c-0.9-0.9-1.4-2.1-1.4-3.3C18.4,28.7,18.9,27.6,19.8,26.7z M7.3,55.4
		c0.9-0.9,2.1-1.4,3.3-1.4s2.4,0.5,3.3,1.4c1.8,1.8,1.8,4.8,0,6.6s-4.8,1.8-6.6,0c-0.9-0.9-1.4-2.1-1.4-3.3
		C5.9,57.5,6.4,56.3,7.3,55.4z M55,53.1L55,53.1c-0.2,0.1-0.3,0.2-0.4,0.3c-0.1,0.1-0.2,0.1-0.3,0.2c-0.1,0.1-0.2,0.2-0.2,0.3
		C54,54,54,54.1,53.9,54.2c0,0.1-0.1,0.2-0.1,0.3s-0.1,0.3-0.1,0.4c0,0,0,0,0,0.1v7c0,0.1,0,0.3,0,0.4c-0.3,0.9-2.8,3.1-4,4.1
		c-2.4,2-3.8,3.3-3.9,4.8c-0.1,3.7-0.9,6.2-2.2,6.6c-0.4,0.1-0.6,0.2-0.8,0.2c-0.1-0.4,0-1.3,0-1.6c0-0.4,0-0.8,0-1
		c0-0.3,0.2-1.4,0.4-2.2c0.3-1.8,0.5-2.9,0.5-3.8c-0.2-1.9-1.4-5.3-7.2-6.1c-5.1-0.8-7.5,2.5-8.2,4.3c-0.1,0.2-0.1,0.3-0.1,0.5
		c0,0.6-0.3,5.7,0,7.7c0.2,1-0.6,3.4-2.3,4.4c0.1-5.1,0-12.7,0.1-13.9l0,0c0-0.1,0-0.2,0-0.3c0-0.1,0-0.3-0.1-0.4l0,0
		c0-0.1-0.1-0.1-0.1-0.2c-0.1-0.1-0.1-0.3-0.3-0.4c-0.1-0.1-0.2-0.2-0.3-0.2c-0.1-0.1-0.2-0.2-0.3-0.2c-0.1-0.1-0.3-0.1-0.5-0.1
		c-0.1,0-0.2-0.1-0.3-0.1l0,0c-0.1,0-0.3,0-0.4,0.1c-0.1,0-0.2,0-0.3,0l0,0l-5.8,2.1c0,0-0.1,0-0.1,0.1c-0.1,0.1-0.2,0.1-0.4,0.2
		c-0.1,0.1-0.2,0.1-0.3,0.2c-0.1,0.1-0.1,0.2-0.2,0.3c-0.1,0.1-0.1,0.2-0.2,0.3c0,0,0,0.1-0.1,0.1c-1.1,3.3-2.5,4-4.1,4.7
		c-1.6,0.8-3.7,1.7-4.4,5.2c-0.4,1.7-0.6,3.9-0.8,6.3C6.4,90.3,5.8,94,5,95c-0.7-3-0.6-12.1,0-19.8c0.1-0.7-0.3-1.3-0.8-1.6l2.6-7.2
		c1.2,0.6,2.5,0.9,3.8,0.9c2.2,0,4.4-0.8,6-2.5c3.3-3.3,3.3-8.7,0-12.1c-1.2-1.2-2.6-1.9-4.2-2.3l5-14c1.6,1.4,3.5,2.1,5.6,2.1
		c2.3,0,4.4-0.9,6-2.5c3.3-3.3,3.3-8.7,0-12.1c-1.6-1.6-3.8-2.5-6-2.5c-0.1,0-0.2,0-0.3,0l2.2-6.1C35.3,20.5,44.5,28,51.7,37
		c-1.3-0.8-2.9-1.3-4.5-1.3c-2.3,0-4.4,0.9-6,2.5c-3.3,3.3-3.3,8.7,0,12.1c1.6,1.6,3.8,2.5,6,2.5s4.4-0.9,6-2.5
		c2.2-2.2,2.9-5.3,2.2-8.2c1.9,2.8,3.6,5.8,5.2,8.8L55,53.1z M50.5,47.7c-1.8,1.8-4.8,1.8-6.6,0s-1.8-4.8,0-6.6
		c0.9-0.9,2.1-1.4,3.3-1.4s2.4,0.5,3.3,1.4C52.4,42.9,52.4,45.9,50.5,47.7z M71.4,49.3c-1.8,1.8-4.4,2.3-6.7,1.4
		c-3.2-6.6-7.2-12.7-11.9-18.2c0,0,0,0,0.1,0c0.7-0.7,0.7-1.8,0-2.4c-0.6-0.6-1.7-0.7-2.3-0.1c-7.1-7.7-15.7-14-25.2-18.6
		c-0.9-2.4-0.4-5,1.4-6.8l0.3-0.3c1.3,0.7,2.5,1.4,3.8,2.2C30.6,6.6,30.2,6.7,30,7c-0.7,0.7-0.7,1.8,0,2.4c0.7,0.7,1.8,0.7,2.4,0
		c0.5-0.5,0.6-1.1,0.4-1.7c16.1,10.2,29.8,24.6,39,41.3L71.4,49.3z"/>
	<path d="M50.5,54.7l-13.1,4.7c-1,0.4-1.5,1.5-1.2,2.5c0.3,0.8,1,1.3,1.8,1.3c0.2,0,0.4,0,0.7-0.1l13.1-4.7c1-0.4,1.5-1.5,1.2-2.5
		C52.6,54.9,51.5,54.4,50.5,54.7z"/>
	<path d="M9.3,69.4l-2.9,1c-1,0.4-1.5,1.5-1.2,2.5c0.3,0.8,1,1.3,1.8,1.3c0.2,0,0.4,0,0.6-0.1l2.9-1c1-0.4,1.5-1.5,1.2-2.5
		C11.4,69.6,10.3,69.1,9.3,69.4z"/>
</g>
</svg>
