<svg id="Layer_1" data-name="Layer 1" xmlns="http://www.w3.org/2000/svg" viewBox="0 0 235.31 84.84"><defs><style>.cls-1{fill:#231f20;}</style></defs><title>t20</title><path class="cls-1" d="M107.22,552.84v63.34c0,9.65,15,9.67,15,0V552.84c0-9.65-15-9.67-15,0h0Z" transform="translate(-65.6 -538.58)"/><path class="cls-1" d="M72.84,556.76h83.77c9.65,0,9.67-15,0-15H72.84c-9.65,0-9.67,15,0,15h0Z" transform="translate(-65.6 -538.58)"/><path class="cls-1" d="M175.52,556.24c4.58-.82,9.18-1.63,13.81-2.16,2.58-.3,9.78-1.65,11.78.82q0-.86,0,0.2a13.64,13.64,0,0,1-.2,2.57,20.34,20.34,0,0,1-1.72,5.33,35,35,0,0,1-7.2,9.69c-12,12-28,18.32-38,32.62-3.46,5,1.25,11,6.48,11.29q31,1.83,62,2c9.65,0,9.67-15,0-15q-31-.16-62-2l6.48,11.29c6-8.6,15.4-13.93,23.76-19.89,8.83-6.29,17.45-13.75,22.06-23.8,4.45-9.72,5.67-22.54-5.49-28-10.77-5.24-24.57-1.46-35.73.54-9.49,1.7-5.47,16.16,4,14.46h0Z" transform="translate(-65.6 -538.58)"/><path class="cls-1" d="M258.64,540.91c-18.54-7.57-28.85,19.67-30.32,33.27-1.68,15.62,8.81,32.36,21.13,41.27,12.91,9.33,29.85,7,40.21-5a47.46,47.46,0,0,0,9.4-43.68c-5.24-17.74-22.05-29.34-40.48-26.41-4,.63-6.24,5.64-5.24,9.23,1.19,4.26,5.19,5.88,9.23,5.24,12.2-1.94,21.63,9.58,23.07,20.58,1.4,10.65-2.68,25.14-13.37,29.86-11.52,5.09-21.2-7.65-25.89-16.44-3.48-6.53-4-12.72-1.75-19.79,1.14-3.66,4.58-15.91,10-13.69,3.78,1.54,8.21-1.68,9.23-5.24,1.22-4.28-1.5-7.7-5.24-9.23h0Z" transform="translate(-65.6 -538.58)"/></svg>